<?xml version="1.0" encoding="UTF-8"?>
<svg id="Layer_1" data-name="Layer 1" xmlns="http://www.w3.org/2000/svg" viewBox="0 0 284.98 284.98">
  <path d="m175.61,165.11c0,4.85-.84,9.22-2.53,13.11-1.69,3.89-4.11,7.23-7.27,10-3.16,2.78-7.05,4.91-11.68,6.41-4.63,1.5-9.86,2.25-15.68,2.25-3.54,0-6.85-.29-9.92-.86-3.08-.57-5.81-1.25-8.21-2.04-2.4-.79-4.38-1.61-5.96-2.45-1.58-.84-2.57-1.46-2.98-1.84-.41-.38-.72-.76-.94-1.14-.22-.38-.41-.84-.57-1.39-.16-.54-.29-1.21-.37-2-.08-.79-.12-1.76-.12-2.9,0-1.96.2-3.32.59-4.08.39-.76.95-1.14,1.68-1.14.5,0,1.49.44,2.97,1.31,1.48.87,3.38,1.81,5.7,2.82,2.32,1.01,5.03,1.95,8.13,2.82,3.1.87,6.55,1.31,10.35,1.31s6.93-.46,9.72-1.39c2.79-.93,5.14-2.23,7.04-3.92,1.9-1.69,3.32-3.69,4.27-6,.95-2.31,1.42-4.83,1.42-7.55,0-2.99-.61-5.69-1.81-8.09-1.21-2.4-2.98-4.46-5.31-6.21-2.33-1.74-5.2-3.08-8.6-4-3.4-.92-7.27-1.39-11.6-1.39h-10.38c-.45,0-.89-.09-1.31-.29-.42-.19-.79-.5-1.1-.94-.31-.44-.56-1.01-.76-1.71-.2-.71-.3-1.63-.3-2.78,0-1.03.08-1.89.25-2.57.16-.68.39-1.23.69-1.63.3-.41.64-.71,1.02-.9.38-.19.82-.29,1.31-.29h9.23c3.59,0,6.82-.46,9.68-1.39,2.86-.93,5.28-2.26,7.27-4,1.99-1.74,3.51-3.82,4.57-6.25,1.06-2.42,1.59-5.13,1.59-8.13,0-2.18-.36-4.26-1.06-6.25-.71-1.99-1.77-3.72-3.18-5.19-1.42-1.47-3.23-2.63-5.43-3.47-2.21-.84-4.75-1.27-7.64-1.27-3.16,0-6.06.48-8.7,1.43-2.64.95-5,1.97-7.06,3.06-2.07,1.09-3.79,2.11-5.15,3.06-1.36.95-2.32,1.43-2.86,1.43-.38,0-.72-.07-1.02-.2-.3-.14-.54-.41-.74-.82-.19-.41-.33-.98-.41-1.72-.08-.74-.12-1.7-.12-2.9,0-.82.03-1.54.08-2.16.05-.63.16-1.17.33-1.63.16-.46.35-.88.57-1.27.22-.38.58-.83,1.1-1.35.52-.52,1.56-1.27,3.14-2.25,1.58-.98,3.52-1.95,5.84-2.9,2.31-.95,4.98-1.76,8-2.41,3.02-.65,6.27-.98,9.76-.98,4.9,0,9.2.63,12.9,1.88,3.7,1.25,6.79,3.02,9.27,5.31,2.48,2.29,4.33,5.02,5.55,8.21,1.23,3.19,1.84,6.71,1.84,10.58,0,3.32-.44,6.41-1.31,9.27-.87,2.86-2.15,5.39-3.84,7.6-1.69,2.21-3.76,4.08-6.21,5.64-2.45,1.55-5.28,2.63-8.49,3.23v.16c3.65.38,6.98,1.29,10,2.74,3.02,1.44,5.62,3.25,7.8,5.43,2.18,2.18,3.88,4.72,5.1,7.64,1.22,2.91,1.84,6.03,1.84,9.35Z"/>
  <path d="m142.49,0C63.79,0,0,63.79,0,142.49s63.79,142.49,142.49,142.49,142.49-63.79,142.49-142.49S221.18,0,142.49,0Zm0,270.8c-70.87,0-128.31-57.45-128.31-128.31S71.62,14.17,142.49,14.17s128.31,57.45,128.31,128.31-57.45,128.31-128.31,128.31Z"/>
</svg>