<?xml version="1.0" encoding="UTF-8"?>
<svg id="Layer_1" data-name="Layer 1" xmlns="http://www.w3.org/2000/svg" viewBox="0 0 284.98 284.98">
  <path d="m173.02,189.8c0,1.03-.08,1.89-.24,2.59-.16.7-.38,1.27-.65,1.7-.27.43-.58.74-.93.93-.35.19-.72.28-1.09.28h-54.81c-.38,0-.73-.09-1.05-.28-.32-.19-.64-.5-.93-.93-.3-.43-.53-1-.69-1.7-.16-.7-.24-1.57-.24-2.59,0-.97.08-1.81.24-2.51s.36-1.28.61-1.74c.24-.46.54-.81.89-1.06.35-.24.74-.36,1.18-.36h21.89v-79.79l-20.27,12.08c-1.03.54-1.85.87-2.47.97-.62.11-1.12-.01-1.5-.36-.38-.35-.64-.93-.77-1.74-.14-.81-.2-1.84-.2-3.08,0-.92.04-1.7.12-2.35.08-.65.2-1.19.36-1.62.16-.43.39-.81.69-1.14.3-.32.69-.65,1.18-.97l24.16-15.49c.22-.16.49-.3.81-.41.32-.11.73-.22,1.22-.32.49-.11,1.05-.18,1.7-.2.65-.03,1.46-.04,2.43-.04,1.3,0,2.38.05,3.24.16.86.11,1.54.26,2.03.45.49.19.81.43.97.73.16.3.24.61.24.93v92.19h18.97c.43,0,.84.12,1.22.36.38.24.69.6.93,1.06.24.46.43,1.04.57,1.74.13.7.2,1.54.2,2.51Z"/>
  <path d="m142.49,0C63.79,0,0,63.79,0,142.49s63.79,142.49,142.49,142.49,142.49-63.79,142.49-142.49S221.18,0,142.49,0Zm0,270.8c-70.87,0-128.31-57.45-128.31-128.31S71.62,14.17,142.49,14.17s128.31,57.45,128.31,128.31-57.45,128.31-128.31,128.31Z"/>
</svg>