<?xml version="1.0" encoding="UTF-8"?>
<svg id="Layer_1" data-name="Layer 1" xmlns="http://www.w3.org/2000/svg" viewBox="0 0 284.98 284.98">
  <path d="m175.57,190.06c0,.98-.07,1.85-.2,2.61-.14.76-.33,1.4-.57,1.92-.24.52-.57.9-.98,1.14-.41.25-.86.37-1.35.37h-58.4c-.76,0-1.43-.09-2-.29-.57-.19-1.06-.5-1.47-.94-.41-.44-.71-1.06-.9-1.88-.19-.82-.29-1.82-.29-3.02,0-1.09.04-2.04.13-2.86.08-.82.27-1.54.55-2.16.28-.63.63-1.25,1.05-1.88.42-.63.97-1.29,1.64-2l21.12-21.73c4.88-5.01,8.8-9.5,11.74-13.48,2.95-3.97,5.22-7.6,6.82-10.86,1.6-3.27,2.65-6.23,3.16-8.9.51-2.67.76-5.17.76-7.51s-.39-4.56-1.18-6.66c-.79-2.1-1.92-3.93-3.41-5.51-1.49-1.58-3.36-2.83-5.6-3.76-2.25-.93-4.83-1.39-7.75-1.39-3.43,0-6.5.46-9.23,1.39-2.73.93-5.11,1.93-7.16,3.02-2.05,1.09-3.76,2.1-5.14,3.02-1.38.93-2.4,1.39-3.07,1.39-.39,0-.75-.11-1.05-.33-.31-.22-.56-.57-.76-1.06-.2-.49-.35-1.14-.46-1.96-.11-.82-.17-1.8-.17-2.94,0-.82.03-1.52.08-2.12.05-.6.15-1.11.29-1.55.14-.44.31-.84.53-1.23.22-.38.65-.86,1.31-1.43.65-.57,1.78-1.35,3.39-2.33,1.61-.98,3.62-1.95,6.04-2.9,2.42-.95,5.09-1.76,8-2.41,2.91-.65,5.98-.98,9.19-.98,5.12,0,9.6.72,13.44,2.16,3.84,1.44,7.02,3.42,9.56,5.92,2.53,2.51,4.42,5.42,5.68,8.74,1.25,3.32,1.88,6.86,1.88,10.62,0,3.38-.3,6.74-.9,10.09-.6,3.35-1.87,6.97-3.8,10.86-1.93,3.89-4.72,8.22-8.37,12.99-3.65,4.76-8.49,10.25-14.54,16.46l-16.74,17.48h45.98c.43,0,.86.12,1.27.37.41.25.76.61,1.06,1.1.3.49.52,1.1.65,1.84.14.74.2,1.59.2,2.57Z"/>
  <path d="m142.49,0C63.79,0,0,63.79,0,142.49s63.79,142.49,142.49,142.49,142.49-63.79,142.49-142.49S221.18,0,142.49,0Zm0,270.8c-70.87,0-128.31-57.45-128.31-128.31S71.62,14.17,142.49,14.17s128.31,57.45,128.31,128.31-57.45,128.31-128.31,128.31Z"/>
</svg>