<?xml version="1.0" encoding="UTF-8"?>
<svg id="Layer_1" data-name="Layer 1" xmlns="http://www.w3.org/2000/svg" viewBox="0 0 68 68">
  <defs>
    <style>
      .cls-1 {
        fill: #3a444f;
      }
    </style>
  </defs>
  <path class="cls-1" d="m1.17,66.83c-1.56-1.56-1.56-4.09,0-5.66L61.17,1.17c1.56-1.56,4.1-1.56,5.66,0,1.56,1.56,1.56,4.1,0,5.66L6.83,66.83c-1.56,1.56-4.09,1.56-5.66,0Z"/>
  <path class="cls-1" d="m61.17,66.83L1.17,6.83C-.39,5.27-.39,2.73,1.17,1.17,2.73-.39,5.27-.39,6.83,1.17l60,60c1.56,1.56,1.56,4.09,0,5.66-1.56,1.56-4.1,1.56-5.66,0Z"/>
</svg>