<?xml version="1.0" encoding="UTF-8"?>
<svg id="Layer_1" data-name="Layer 1" xmlns="http://www.w3.org/2000/svg" viewBox="0 0 88.39 66.29">
  <defs>
    <style>
      .cls-1 {
        fill: #3a444f;
      }
    </style>
  </defs>
  <path class="cls-1" d="m88.39,60.77c0,3.04-2.49,5.52-5.52,5.52H5.52c-3.04,0-5.52-2.49-5.52-5.52h0c0-3.04,2.49-5.52,5.52-5.52h77.34c3.04,0,5.52,2.49,5.52,5.52h0Z"/>
  <path class="cls-1" d="m88.39,33.15c0,3.04-2.49,5.52-5.52,5.52H5.52c-3.04,0-5.52-2.49-5.52-5.52h0c0-3.04,2.49-5.52,5.52-5.52h77.34c3.04,0,5.52,2.49,5.52,5.52h0Z"/>
  <path class="cls-1" d="m88.39,5.52c0,3.04-2.49,5.52-5.52,5.52H5.52c-3.04,0-5.52-2.49-5.52-5.52h0C0,2.49,2.49,0,5.52,0h77.34c3.04,0,5.52,2.49,5.52,5.52h0Z"/>
</svg>