<?xml version="1.0" encoding="UTF-8"?>
<svg id="Layer_1" data-name="Layer 1" xmlns="http://www.w3.org/2000/svg" viewBox="0 0 2743.34 336.55">
  <defs>
    <style>
      .cls-1 {
        stroke: #010101;
        stroke-width: 5px;
      }

      .cls-1, .cls-2 {
        stroke-miterlimit: 10;
      }

      .cls-1, .cls-3 {
        fill: #fff;
      }

      .cls-2 {
        fill: none;
        stroke: #000;
        stroke-width: 8px;
      }

      .cls-4, .cls-3 {
        stroke-width: 0px;
      }
    </style>
  </defs>
  <rect class="cls-1" x="3.48" y="3.48" width="393.76" height="329.92" rx="12.65" ry="12.65"/>
  <g>
    <g>
      <path class="cls-4" d="m207.77,28.45l-2.42,132.95c-3.14,0-6.28,0-9.42,0l-2.96-132.95"/>
      <circle class="cls-4" cx="200.36" cy="29.01" r="7.42"/>
    </g>
    <circle class="cls-2" cx="200.84" cy="171.36" r="89.68"/>
    <g>
      <path class="cls-4" d="m61.27,161.4l132.95,2.42c0,3.14,0,6.28,0,9.42l-132.95,2.96"/>
      <circle class="cls-4" cx="62.89" cy="168.8" r="7.42"/>
    </g>
    <g>
      <path class="cls-4" d="m106.25,64.29l92.29,95.72c-2.22,2.22-4.44,4.44-6.66,6.66l-96.1-91.91"/>
      <circle class="cls-4" cx="101.4" cy="69.92" r="7.42"/>
    </g>
    <g>
      <path class="cls-4" d="m305.25,74.37l-95.72,92.29c-2.22-2.22-4.44-4.44-6.66-6.66l91.91-96.1"/>
      <circle class="cls-4" cx="299.62" cy="69.53" r="7.42"/>
    </g>
    <g>
      <path class="cls-4" d="m340.11,175.84l-132.95-2.42c0-3.14,0-6.28,0-9.42l132.95-2.96"/>
      <circle class="cls-4" cx="339.55" cy="168.44" r="7.42"/>
    </g>
    <circle class="cls-4" cx="200.85" cy="168.44" r="9.09"/>
    <g>
      <path class="cls-4" d="m193.59,308.46l2.42-132.95c3.14,0,6.28,0,9.42,0l2.96,132.95"/>
      <circle class="cls-4" cx="201" cy="307.9" r="7.42"/>
    </g>
    <g>
      <path class="cls-4" d="m295.12,272.62l-92.29-95.72c2.22-2.22,4.44-4.44,6.66-6.66l96.1,91.91"/>
      <circle class="cls-4" cx="299.96" cy="266.99" r="7.42"/>
    </g>
    <g>
      <path class="cls-4" d="m96.12,262.54l95.72-92.29c2.22,2.22,4.44,4.44,6.66,6.66l-91.91,96.1"/>
      <circle class="cls-4" cx="101.75" cy="267.38" r="7.42"/>
    </g>
  </g>
  <g>
    <path class="cls-3" d="m475.29,239.22v-5.7c7.81,0,11.72-1.9,11.72-5.7V84.03c0-3.8-3.91-5.7-11.72-5.7v-5.7h111.48c20.27,0,36.21,3.75,47.82,11.24,11.61,7.49,17.42,20.22,17.42,38.16s-5.81,30.67-17.42,38.17c-11.61,7.49-27.55,11.24-47.82,11.24h-63.66v56.37c0,3.8,3.38,5.7,10.14,5.7v5.7h-57.96Zm115.28-96.91c6.97,0,12.93-1.37,17.89-4.12,4.96-2.74,7.44-8.13,7.44-16.15s-2.48-13.4-7.44-16.15c-4.96-2.74-10.93-4.12-17.89-4.12h-67.46v40.54h67.46Z"/>
    <path class="cls-3" d="m810.68,129.32c0-4.01-3.28-6.02-9.82-6.02h-77.28v31.67h48.77c3.59,0,6.22-.26,7.92-.79,1.69-.52,2.53-1.95,2.53-4.27h5.7v33.57h-6.33c.63-2.32-.21-3.74-2.53-4.28-2.33-.52-5.6-.79-9.82-.79h-46.24v37.37h81.08c2.53,0,4.64-.58,6.33-1.74,1.69-1.16,2.53-2.69,2.53-4.59h5.7v33.25h-5.7c0-1.9-.85-2.96-2.53-3.17-1.69-.21-3.8-.32-6.33-.32h-116.23v-5.7c1.05,0,2.11-.37,3.17-1.11,1.05-.74,1.58-1.95,1.58-3.64v-118.45c0-1.68-.53-2.9-1.58-3.64-1.06-.73-2.11-1.11-3.17-1.11v-5.7h112.43c6.54,0,9.82-1.9,9.82-5.7h5.7v35.16h-5.7Z"/>
    <path class="cls-3" d="m864.21,233.52c3.8,0,5.7-1.58,5.7-4.75v-118.45c0-3.17-1.9-4.75-5.7-4.75v-5.7h46.55v5.7c-1.48.21-2.22.74-2.22,1.58,0,1.06,2.32,3.91,6.97,8.55l76.01,80.45v-85.83c0-3.17-2.11-4.75-6.33-4.75v-5.7h38.64v5.7c-3.8,0-5.7,1.58-5.7,4.75v118.45c0,3.17,1.9,4.75,5.7,4.75v5.7h-41.17v-5.7c1.48,0,2.22-.52,2.22-1.58,0-.84-1-2.32-3.01-4.43-2.01-2.11-4.28-4.54-6.81-7.29l-78.54-83.61v92.16c0,3.17,2.22,4.75,6.65,4.75v5.7h-38.96v-5.7Z"/>
    <path class="cls-3" d="m1054.54,233.52c2.53-.42,4.59-1.63,6.18-3.64,1.58-2.01,2.8-3.85,3.64-5.54l47.19-102.93c1.27-2.95,2.27-5.33,3.01-7.13.74-1.79,1.11-3.53,1.11-5.23,0-1.27-.27-2.06-.79-2.37-.53-.31-1.11-.68-1.74-1.11v-5.7h47.82v5.7c-.63.43-1.32.74-2.06.95-.74.21-1.11,1.06-1.11,2.53,0,1.27.47,2.8,1.43,4.6.95,1.8,1.95,3.85,3.01,6.18l51.31,107.68c1.05,1.9,2.22,3.27,3.48,4.11,1.27.85,2.64,1.48,4.12,1.9v5.7h-44.97v-4.75c1.05,0,2.16-.32,3.32-.95,1.16-.64,1.74-1.79,1.74-3.48,0-1.27-.21-2.43-.63-3.49-.43-1.05-.95-2.42-1.58-4.11l-8.55-18.05h-67.78l-8.87,17.1c-.85,1.7-1.54,3.23-2.06,4.6-.53,1.37-.79,2.59-.79,3.64,0,1.69.52,2.74,1.58,3.17,1.05.43,2.53.64,4.43.64v5.7h-42.44v-5.7Zm105.78-52.57l-25.65-53.21-22.49,53.21h48.14Z"/>
    <path class="cls-3" d="m1295.87,99.87v5.7c-4.86,0-7.28,1.58-7.28,4.75v105.47h85.51c2.53,0,4.64-.58,6.33-1.74,1.69-1.16,2.53-2.8,2.53-4.91h5.7v33.26h-5.7c0-1.69-.85-2.65-2.53-2.85-1.69-.21-3.8-.32-6.33-.32h-124.15v-5.7c5.49,0,8.23-1.58,8.23-4.75v-118.45c0-3.17-2.75-4.75-8.23-4.75v-5.7h45.92Z"/>
    <path class="cls-3" d="m1461.19,233.52c1.05,0,2.11-.37,3.17-1.11,1.05-.74,1.58-1.95,1.58-3.64v-105.47h-41.17c-1.69,0-3.27.43-4.75,1.27-1.48.85-2.22,2.22-2.22,4.12h-5.7v-36.42h5.7c0,2.96.74,4.96,2.22,6.02,1.48,1.06,3.06,1.58,4.75,1.58h112.75c1.69,0,3.27-.52,4.75-1.58,1.48-1.05,2.22-3.06,2.22-6.02h5.7v36.42h-5.7c0-1.9-.74-3.27-2.22-4.12-1.48-.84-3.06-1.27-4.75-1.27h-41.17v105.47c0,3.17,1.9,4.75,5.7,4.75v5.7h-40.86v-5.7Z"/>
    <path class="cls-3" d="m1579.33,110.96c-1.48-1.9-3.28-3.27-5.39-4.12-2.11-.84-4.12-1.27-6.02-1.27v-5.7h52.26v5.7c-1.06,0-2.22.37-3.48,1.11-1.27.74-1.9,1.74-1.9,3.01s.42,2.43,1.27,3.48c.84,1.06,1.79,2.33,2.85,3.8l31.99,41.81,28.19-39.27c1.9-2.74,3.33-4.8,4.28-6.18.95-1.37,1.43-2.69,1.43-3.96,0-1.69-.53-2.74-1.58-3.17-1.06-.42-2.11-.64-3.17-.64v-5.7h48.46v5.7c-2.53,0-5.33,1.43-8.39,4.28-3.06,2.85-5.75,5.75-8.08,8.71l-48.46,62.71v47.51c0,3.17,2,4.75,6.02,4.75v5.7h-42.12v-5.7c3.8,0,5.7-1.58,5.7-4.75v-48.77l-53.84-69.04Z"/>
    <path class="cls-3" d="m1861.83,72.64c9.71,0,19.11.79,28.19,2.37,9.07,1.58,17.1,4.11,24.07,7.6,6.97,3.48,12.56,8.03,16.78,13.62,4.22,5.6,6.33,12.51,6.33,20.74,0,9.93-3.06,17.58-9.19,22.96-6.12,5.38-13.41,9.56-21.85,12.51v.63c9.92,2.96,18.31,7.66,25.18,14.09,6.86,6.44,10.29,15.68,10.29,27.71,0,6.33-1.37,12.19-4.11,17.58-2.75,5.38-6.81,10.08-12.19,14.09-5.39,4.02-11.99,7.13-19.8,9.34s-16.68,3.32-26.6,3.32h-116.23v-5.7c5.91,0,8.87-1.9,8.87-5.7V84.03c0-3.8-2.96-5.7-8.87-5.7v-5.7h99.13Zm6.33,65.24c9.5,0,17.37-1.21,23.59-3.64,6.23-2.42,9.34-7.55,9.34-15.36s-3.12-12.93-9.34-15.36c-6.23-2.43-14.09-3.64-23.59-3.64h-60.49v38h60.49Zm0,72.21c13.3,0,22.86-2.06,28.66-6.18,5.81-4.12,8.71-9.55,8.71-16.31s-2.9-12.2-8.71-16.31c-5.81-4.12-15.36-6.18-28.66-6.18h-60.49v44.97h60.49Z"/>
    <path class="cls-3" d="m2061.67,97.97c11.61,0,22.53,1.48,32.78,4.44,10.24,2.96,19.16,7.39,26.76,13.3,7.6,5.91,13.62,13.36,18.05,22.33,4.43,8.98,6.65,19.48,6.65,31.51s-2.22,22.54-6.65,31.51c-4.44,8.98-10.45,16.42-18.05,22.33-7.6,5.91-16.52,10.19-26.76,12.83-10.24,2.64-21.17,3.96-32.78,3.96s-22.54-1.31-32.78-3.96c-10.24-2.64-19.16-6.91-26.76-12.83-7.6-5.91-13.62-13.35-18.05-22.33-4.44-8.97-6.65-19.48-6.65-31.51s2.22-22.53,6.65-31.51c4.43-8.97,10.45-16.41,18.05-22.33,7.6-5.91,16.52-10.34,26.76-13.3,10.24-2.95,21.16-4.44,32.78-4.44Zm0,23.44c-6.76,0-13.36,1.11-19.79,3.32-6.45,2.22-12.2,5.39-17.26,9.5-5.07,4.12-9.13,9.13-12.19,15.04-3.06,5.91-4.59,12.67-4.59,20.27s1.53,14.36,4.59,20.27c3.06,5.91,7.12,10.93,12.19,15.04,5.07,4.11,10.82,7.28,17.26,9.5,6.44,2.22,13.03,3.32,19.79,3.32s13.35-1.11,19.79-3.32c6.44-2.22,12.19-5.39,17.26-9.5,5.07-4.12,9.13-9.13,12.19-15.04,3.06-5.91,4.6-12.67,4.6-20.27s-1.54-14.36-4.6-20.27c-3.06-5.91-7.12-10.93-12.19-15.04-5.07-4.11-10.82-7.28-17.26-9.5-6.44-2.22-13.04-3.32-19.79-3.32Z"/>
    <path class="cls-3" d="m2221.92,105.57c-2.53,0-3.8,1.16-3.8,3.48,0,1.06.64,2.43,1.9,4.12,1.27,1.69,2.85,3.7,4.75,6.02l22.17,26.92,24.07-29.46c3.38-4.01,5.07-6.86,5.07-8.55s-1.37-2.53-4.12-2.53v-5.7h48.46v5.7c-3.38,0-6.12,1.06-8.23,3.17l-47.82,57.64,44.02,55.42c1.69,1.9,3.69,4.33,6.02,7.28,2.32,2.96,5.07,4.44,8.24,4.44v5.7h-48.46v-5.7c1.48-.21,2.22-1.06,2.22-2.53,0-.64-1.16-2.74-3.49-6.33l-27.55-33.89-26.92,32.94c-2.96,3.59-4.43,6.12-4.43,7.6s.95,2.22,2.85,2.22v5.7h-46.24v-5.7c1.27,0,2.8-.32,4.6-.95,1.79-.64,3.43-1.9,4.91-3.8l48.14-59.23-43.71-54.47c-2.96-3.59-5.38-6.07-7.28-7.44-1.9-1.37-3.59-2.06-5.07-2.06v-5.7h49.72v5.7Z"/>
    <path class="cls-3" d="m2457.54,233.52c5.49,0,8.23-1.9,8.23-5.7V84.03c0-3.8-2.74-5.7-8.23-5.7v-5.7h52.57v5.7c-5.49,0-8.24,1.9-8.24,5.7v143.79c0,3.8,2.74,5.7,8.24,5.7v5.7h-52.57v-5.7Z"/>
    <path class="cls-3" d="m2563.01,233.52c5.49,0,8.23-1.9,8.23-5.7V84.03c0-3.8-2.74-5.7-8.23-5.7v-5.7h52.57v5.7c-5.49,0-8.24,1.9-8.24,5.7v143.79c0,3.8,2.74,5.7,8.24,5.7v5.7h-52.57v-5.7Z"/>
    <path class="cls-3" d="m2668.47,233.52c5.49,0,8.23-1.9,8.23-5.7V84.03c0-3.8-2.74-5.7-8.23-5.7v-5.7h52.57v5.7c-5.49,0-8.24,1.9-8.24,5.7v143.79c0,3.8,2.74,5.7,8.24,5.7v5.7h-52.57v-5.7Z"/>
  </g>
</svg>